<?xml version="1.0" encoding="UTF-8"?>
<svg width="82px" height="50px" viewBox="0 0 82 50" version="1.1" xmlns="http://www.w3.org/2000/svg" xmlns:xlink="http://www.w3.org/1999/xlink">
    <!-- Generator: Sketch 49.1 (51147) - http://www.bohemiancoding.com/sketch -->
    <title>Untitled</title>
    <desc>Created with Sketch.</desc>
    <defs></defs>
    <g id="Page-1" stroke="none" stroke-width="1" fill="none" fill-rule="evenodd">
        <path d="M13.7578125,8.68359375 L8.49609375,8.68359375 L8.49609375,23.0625 L5.19140625,23.0625 L5.19140625,8.68359375 L0,8.68359375 L0,6 L13.7578125,6 L13.7578125,8.68359375 Z M23.9453125,13.8632812 L27.3085938,6 L30.9296875,6 L25.5625,17.15625 L25.5507812,23.0625 L22.2695312,23.0625 L22.2578125,17.015625 L16.9726562,6 L20.5820312,6 L23.9453125,13.8632812 Z M12.9492188,41.0703125 C12.7382802,41.3281263 12.4492206,41.5898424 12.0820312,41.8554688 C11.7148419,42.1210951 11.2792994,42.3613271 10.7753906,42.5761719 C10.2714819,42.7910167 9.70703438,42.9648431 9.08203125,43.0976562 C8.45702812,43.2304694 7.78515984,43.296875 7.06640625,43.296875 C6.09765141,43.296875 5.22266016,43.1250017 4.44140625,42.78125 C3.66015234,42.4374983 2.99219027,41.9414095 2.4375,41.2929688 C1.88280973,40.644528 1.45507963,39.8496141 1.15429688,38.9082031 C0.853514121,37.9667922 0.703125,36.8984435 0.703125,35.703125 L0.703125,33.3828125 C0.703125,32.187494 0.861326543,31.1191453 1.17773438,30.1777344 C1.49414221,29.2363234 1.93163783,28.4375033 2.49023438,27.78125 C3.04883092,27.1249967 3.70507436,26.6250017 4.45898438,26.28125 C5.21289439,25.9374983 6.03124559,25.765625 6.9140625,25.765625 C7.8750048,25.765625 8.71288705,25.8867175 9.42773438,26.1289062 C10.1425817,26.371095 10.7460913,26.7207008 11.2382812,27.1777344 C11.7304712,27.6347679 12.115233,28.191403 12.3925781,28.8476562 C12.6699233,29.5039095 12.8515621,30.2421834 12.9375,31.0625 L9.7265625,31.0625 C9.61718695,30.1874956 9.35351771,29.5292991 8.93554688,29.0878906 C8.51757604,28.6464822 7.87109813,28.4257812 6.99609375,28.4257812 C6.57421664,28.4257812 6.18359555,28.5332021 5.82421875,28.7480469 C5.46484195,28.9628917 5.15234508,29.2773417 4.88671875,29.6914062 C4.62109242,30.1054708 4.41015703,30.6191376 4.25390625,31.2324219 C4.09765547,31.8457062 4.01953125,32.5546835 4.01953125,33.359375 L4.01953125,35.703125 C4.02734379,37.296883 4.29296613,38.5175739 4.81640625,39.3652344 C5.33984637,40.2128949 6.14061961,40.640625 7.21875,40.6484375 C7.47656379,40.6484375 7.7304675,40.6289064 7.98046875,40.5898438 C8.23047,40.5507811 8.46484266,40.4960941 8.68359375,40.4257812 C8.90234484,40.3554684 9.09570229,40.2753911 9.26367188,40.1855469 C9.43164146,40.0957027 9.55859332,40.0000005 9.64453125,39.8984375 L9.65625,36.8046875 L6.83203125,36.8046875 L6.83203125,34.34375 L12.9375,34.34375 L12.9492188,41.0703125 Z M30.0273438,35.7851562 C30.0273438,36.8789117 29.8828139,37.8867141 29.59375,38.8085938 C29.3046861,39.7304734 28.8867215,40.5234342 28.3398438,41.1875 C27.792966,41.8515658 27.1269571,42.3691388 26.3417969,42.7402344 C25.5566367,43.11133 24.6718799,43.296875 23.6875,43.296875 C22.7031201,43.296875 21.8281288,43.11133 21.0625,42.7402344 C20.2968712,42.3691388 19.6523464,41.8496127 19.1289062,41.1816406 C18.6054661,40.5136685 18.2070326,39.7207077 17.9335938,38.8027344 C17.6601549,37.884761 17.5234375,36.8789117 17.5234375,35.7851562 L17.5234375,33.3007812 C17.5234375,32.2070258 17.6601549,31.1992234 17.9335938,30.2773438 C18.2070326,29.3554641 18.6054661,28.5605502 19.1289062,27.8925781 C19.6523464,27.224606 20.2949181,26.7031269 21.0566406,26.328125 C21.8183632,25.9531231 22.6914013,25.765625 23.6757812,25.765625 C24.6679737,25.765625 25.5566367,25.9531231 26.3417969,26.328125 C27.1269571,26.7031269 27.792966,27.224606 28.3398438,27.8925781 C28.8867215,28.5605502 29.3046861,29.3554641 29.59375,30.2773438 C29.8828139,31.1992234 30.0273438,32.2070258 30.0273438,33.3007812 L30.0273438,35.7851562 Z M26.6875,33.2773438 C26.6875,32.5820278 26.6308599,31.9414092 26.5175781,31.3554688 C26.4042963,30.7695283 26.2265637,30.2656271 25.984375,29.84375 C25.7421863,29.4218729 25.4316425,29.0917981 25.0527344,28.8535156 C24.6738262,28.6152332 24.2148464,28.4960938 23.6757812,28.4960938 C23.1445286,28.4960938 22.6992205,28.6152332 22.3398438,28.8535156 C21.980467,29.0917981 21.6914073,29.4218729 21.4726562,29.84375 C21.2539052,30.2656271 21.0976567,30.7695283 21.0039062,31.3554688 C20.9101558,31.9414092 20.8632812,32.5820278 20.8632812,33.2773438 L20.8632812,35.7851562 C20.8632812,36.4726597 20.9101558,37.1093721 21.0039062,37.6953125 C21.0976567,38.2812529 21.2539052,38.7890604 21.4726562,39.21875 C21.6914073,39.6484396 21.980467,39.9843738 22.3398438,40.2265625 C22.6992205,40.4687512 23.1484348,40.5898438 23.6875,40.5898438 C24.2187527,40.5898438 24.6738262,40.4687512 25.0527344,40.2265625 C25.4316425,39.9843738 25.7402332,39.6503928 25.9785156,39.2246094 C26.2167981,38.798826 26.3945307,38.2929717 26.5117188,37.7070312 C26.6289068,37.1210908 26.6875,36.4804722 26.6875,35.7851562 L26.6875,33.2773438 Z M46.9296875,35.7851562 C46.9296875,36.8789117 46.7851577,37.8867141 46.4960938,38.8085938 C46.2070298,39.7304734 45.7890652,40.5234342 45.2421875,41.1875 C44.6953098,41.8515658 44.0293008,42.3691388 43.2441406,42.7402344 C42.4589804,43.11133 41.5742237,43.296875 40.5898438,43.296875 C39.6054638,43.296875 38.7304726,43.11133 37.9648438,42.7402344 C37.1992149,42.3691388 36.5546901,41.8496127 36.03125,41.1816406 C35.5078099,40.5136685 35.1093764,39.7207077 34.8359375,38.8027344 C34.5624986,37.884761 34.4257812,36.8789117 34.4257812,35.7851562 L34.4257812,33.3007812 C34.4257812,32.2070258 34.5624986,31.1992234 34.8359375,30.2773438 C35.1093764,29.3554641 35.5078099,28.5605502 36.03125,27.8925781 C36.5546901,27.224606 37.1972618,26.7031269 37.9589844,26.328125 C38.7207069,25.9531231 39.5937451,25.765625 40.578125,25.765625 C41.5703175,25.765625 42.4589804,25.9531231 43.2441406,26.328125 C44.0293008,26.7031269 44.6953098,27.224606 45.2421875,27.8925781 C45.7890652,28.5605502 46.2070298,29.3554641 46.4960938,30.2773438 C46.7851577,31.1992234 46.9296875,32.2070258 46.9296875,33.3007812 L46.9296875,35.7851562 Z M43.5898438,33.2773438 C43.5898438,32.5820278 43.5332037,31.9414092 43.4199219,31.3554688 C43.3066401,30.7695283 43.1289075,30.2656271 42.8867188,29.84375 C42.64453,29.4218729 42.3339863,29.0917981 41.9550781,28.8535156 C41.57617,28.6152332 41.1171902,28.4960938 40.578125,28.4960938 C40.0468723,28.4960938 39.6015643,28.6152332 39.2421875,28.8535156 C38.8828107,29.0917981 38.5937511,29.4218729 38.375,29.84375 C38.1562489,30.2656271 38.0000005,30.7695283 37.90625,31.3554688 C37.8124995,31.9414092 37.765625,32.5820278 37.765625,33.2773438 L37.765625,35.7851562 C37.765625,36.4726597 37.8124995,37.1093721 37.90625,37.6953125 C38.0000005,38.2812529 38.1562489,38.7890604 38.375,39.21875 C38.5937511,39.6484396 38.8828107,39.9843738 39.2421875,40.2265625 C39.6015643,40.4687512 40.0507786,40.5898438 40.5898438,40.5898438 C41.1210964,40.5898438 41.57617,40.4687512 41.9550781,40.2265625 C42.3339863,39.9843738 42.6425769,39.6503928 42.8808594,39.2246094 C43.1191418,38.798826 43.2968744,38.2929717 43.4140625,37.7070312 C43.5312506,37.1210908 43.5898438,36.4804722 43.5898438,35.7851562 L43.5898438,33.2773438 Z M63.7734375,37.71875 C63.7187497,38.5781293 63.5332047,39.3515591 63.2167969,40.0390625 C62.900389,40.7265659 62.4765652,41.3124976 61.9453125,41.796875 C61.4140598,42.2812524 60.7812537,42.6542956 60.046875,42.9160156 C59.3124963,43.1777357 58.5000045,43.3085938 57.609375,43.3085938 C56.6015575,43.3085938 55.7070352,43.1230487 54.9257812,42.7519531 C54.1445273,42.3808575 53.4882839,41.8613315 52.9570312,41.1933594 C52.4257786,40.5253873 52.0195327,39.7226609 51.7382812,38.7851562 C51.4570298,37.8476516 51.3164062,36.8164119 51.3164062,35.6914062 L51.3164062,33.3945312 C51.3164062,32.2617131 51.4648423,31.2265672 51.7617188,30.2890625 C52.0585952,29.3515578 52.480466,28.5468784 53.0273438,27.875 C53.5742215,27.2031216 54.2363242,26.6816425 55.0136719,26.3105469 C55.7910195,25.9394513 56.6640577,25.7539062 57.6328125,25.7539062 C58.5703172,25.7539062 59.4042932,25.8867174 60.1347656,26.1523438 C60.865238,26.4179701 61.4882787,26.7968725 62.0039062,27.2890625 C62.5195338,27.7812525 62.9257798,28.3828089 63.2226562,29.09375 C63.5195327,29.8046911 63.7070309,30.6054643 63.7851562,31.4960938 L60.5039062,31.4960938 C60.4726561,30.9882787 60.396485,30.5429707 60.2753906,30.1601562 C60.1542963,29.7773418 59.9785168,29.4589856 59.7480469,29.2050781 C59.517577,28.9511706 59.2285174,28.7597663 58.8808594,28.6308594 C58.5332014,28.5019525 58.1171899,28.4375 57.6328125,28.4375 C57.1249975,28.4375 56.6835956,28.5468739 56.3085938,28.765625 C55.9335919,28.9843761 55.6230481,29.3046854 55.3769531,29.7265625 C55.1308581,30.1484396 54.9492193,30.6660126 54.8320312,31.2792969 C54.7148432,31.8925812 54.65625,32.5898398 54.65625,33.3710938 L54.65625,35.6914062 C54.65625,37.3711021 54.8925758,38.6132772 55.3652344,39.4179688 C55.837893,40.2226603 56.5859324,40.625 57.609375,40.625 C58.4687543,40.625 59.148435,40.3964867 59.6484375,39.9394531 C60.14844,39.4824196 60.425781,38.7421926 60.4804688,37.71875 L63.7734375,37.71875 Z M80.0898438,43.0625 L76.8320312,43.0625 L76.8320312,35.6679688 L72.0039062,35.6679688 L72.0039062,43.0625 L68.734375,43.0625 L68.734375,26 L72.0039062,26 L72.0039062,32.9960938 L76.8320312,32.9960938 L76.8320312,26 L80.0898438,26 L80.0898438,43.0625 Z" id="TY-GOOCH" fill="#000000"></path>
        <path d="M30.9993039,21.44 L80.25,21.44" id="Path-3" stroke="#CF000F" stroke-width="3.28"></path>
    </g>
</svg>